<svg style="" width="34.593750" height="34.558594" version="1.1" xmlns="http://www.w3.org/2000/svg">
<path d="M19.652344 11.460938 C19.464843 11.296874 19.248048 11.214844 19.001953 11.214844 C18.755858 11.214844 18.539063 11.296874 18.351562 11.460938 L13.324219 16.628906 C13.136718 16.792970 13.042969 17.003905 13.042969 17.261719 C13.042969 17.519533 13.136718 17.742187 13.324219 17.929688 L18.351562 23.062500 C18.539063 23.250001 18.755858 23.343750 19.001953 23.343750 C19.248048 23.343750 19.464843 23.250001 19.652344 23.062500 C19.816407 22.898437 19.898438 22.687501 19.898438 22.429688 C19.898438 22.171874 19.816407 21.949220 19.652344 21.761719 L15.503906 17.261719 L19.652344 12.761719 C19.816407 12.574218 19.898438 12.357423 19.898438 12.111328 C19.898438 11.865233 19.816407 11.648438 19.652344 11.460938 Z M17.296875 -0.000000 C14.906238 -0.000000 12.662120 0.451167 10.564453 1.353516 C8.466786 2.255864 6.638680 3.486320 5.080078 5.044922 C3.521477 6.603523 2.285161 8.431630 1.371094 10.529297 C0.457027 12.626964 0.000000 14.871082 0.000000 17.261719 C0.000000 19.652356 0.457027 21.896474 1.371094 23.994141 C2.285161 26.091807 3.521477 27.919914 5.080078 29.478516 C6.638680 31.037117 8.466786 32.273433 10.564453 33.187500 C12.662120 34.101567 14.906238 34.558594 17.296875 34.558594 C19.687512 34.558594 21.931630 34.101567 24.029297 33.187500 C26.126964 32.273433 27.955070 31.037117 29.513672 29.478516 C31.072273 27.919914 32.308589 26.091807 33.222656 23.994141 C34.136723 21.896474 34.593750 19.652356 34.593750 17.261719 C34.593750 14.871082 34.136723 12.626964 33.222656 10.529297 C32.308589 8.431630 31.072273 6.603523 29.513672 5.044922 C27.955070 3.486320 26.126964 2.255864 24.029297 1.353516 C21.931630 0.451167 19.687512 -0.000000 17.296875 -0.000000 Z M17.296875 32.308594 C15.210927 32.308594 13.259775 31.916020 11.443359 31.130859 C9.626944 30.345699 8.033210 29.273444 6.662109 27.914062 C5.291009 26.554681 4.212895 24.960947 3.427734 23.132812 C2.642574 21.304678 2.250000 19.347667 2.250000 17.261719 C2.250000 15.199208 2.642574 13.253915 3.427734 11.425781 C4.212895 9.597647 5.291009 8.003913 6.662109 6.644531 C8.033210 5.285149 9.626944 4.207035 11.443359 3.410156 C13.259775 2.613277 15.210927 2.214844 17.296875 2.214844 C19.382823 2.214844 21.333975 2.613277 23.150391 3.410156 C24.966806 4.207035 26.554681 5.285149 27.914062 6.644531 C29.273444 8.003913 30.351559 9.597647 31.148438 11.425781 C31.945316 13.253915 32.343750 15.199208 32.343750 17.261719 C32.343750 19.347667 31.945316 21.304678 31.148438 23.132812 C30.351559 24.960947 29.273444 26.554681 27.914062 27.914062 C26.554681 29.273444 24.966806 30.345699 23.150391 31.130859 C21.333975 31.916020 19.382823 32.308594 17.296875 32.308594 Z M35.296875 33.468750" style="fill:black"/>
</svg>